<?xml version="1.0" encoding="UTF-8"?>
<svg xmlns="http://www.w3.org/2000/svg" width="11" height="11" viewBox="0 0 11 11" id="oil-rig-es-11">
  <path d="M0 0h11v11H0z"/>
  <path d="M5.316 0h.355v.355h.177l.178.355h.355l.334 2.129h.198l.177.532h-.292l.612 3.903h.198l.37.71h-.456L7.8 9.758h.34L8.687 11H2.3l.547-1.242h.34l.278-1.774H3.01l.383-.71h.184l.612-3.903h-.292l.177-.532h.198l.334-2.13h.355L5.14.356h.177V0zm2.13 9.758l-.258-1.64-1.436.753 1.693.887zm-.517 0L5.671 9.1v.66h1.258zM5.316 8.643v-.66H4.058l1.258.66zM3.8 8.119l-.257 1.64 1.693-.888L3.8 8.119zm1.872-.135h1.258l-1.258.659v-.66zM4.058 9.758L5.316 9.1v.66H4.058zm2.993-2.51l-.26-1.664-1.08.742 1.34.921zm-.396.026l-.984-.676v.676h.984zm-1.339-1.22V5.5H4.51l.806.554zm-1.12-.47l-.26 1.663 1.34-.92-1.08-.743zM5.672 5.5h.806l-.806.554V5.5zM4.332 7.274l.984-.676v.676h-.984zm2.39-2.129l-.264-1.682-.783.717 1.046.965zm-.358 0l-.693-.636v.636h.693zM5.316 3.85V3.37H4.8l.517.478zm-.787-.386l-.263 1.682 1.046-.965-.783-.717zm1.142-.092h.517l-.517.478V3.37zM4.623 5.145l.693-.636v.636h-.693zM6.36 2.84l-.167-1.065H5.67V2.84h.689zm-1.044 0h-.689l.167-1.065h.522V2.84z"/>
</svg>