<?xml version="1.0" encoding="UTF-8"?>
<svg width="11" height="11" viewBox="0 0 11 11" xmlns="http://www.w3.org/2000/svg" id="oil-rig-es-11">
  <path d="M10.2667 9.53333H8.8L7.33333 1.46667H6.6V0.733333H5.86667V0H5.13333V0.733333H4.4V1.46667H3.66667L2.2 9.53333H0.733333L0 11H11L10.2667 9.53333ZM4.268 2.2H6.732L7.13533 4.4H3.86467L4.268 2.2ZM6.6 5.13333L5.5 6.78333L4.4 5.13333H6.6ZM2.93333 9.53333L3.718 5.214L5.13333 7.33333L3.66667 9.53333H2.93333ZM4.4 9.53333L5.5 7.88333L6.6 9.53333H4.4ZM7.33333 9.53333L5.86667 7.33333L7.282 5.214L8.06667 9.53333H7.33333Z"/>
</svg>