<?xml version="1.0" encoding="UTF-8"?>
<svg width="11" height="11" viewBox="0 0 11 11" xmlns="http://www.w3.org/2000/svg" id="oil-rig-es-11">
  <path d="M10.172 6.59999H11V8.06665H9.53333V11H8.06667V8.06665H2.93333V11H1.46667V8.06665H0V6.59999H1.46667V3.66665H6.6V6.59999H7.42812L7.7963 3.4699H7.33333V2.93332H10.2667V3.4699H9.8037L10.172 6.59999ZM9.43122 5.8299L8.50267 6.59999H9.52179L9.43122 5.8299ZM9.15352 3.4699H8.44639L8.4073 3.80227L9.27754 4.52393L9.15352 3.4699ZM9.22674 5.24064L8.326 4.49361L8.1312 6.14913L9.22674 5.24064ZM5.13333 4.39999H2.93333V5.86665H5.13333V4.39999Z"/>
</svg>