<?xml version="1.0" encoding="UTF-8"?>
<svg xmlns="http://www.w3.org/2000/svg" width="15" height="15" viewBox="0 0 15 15" id="oil-rig-es-15">
  <path d="M7.263 0h.484v.484h.242l.242.484h.484L9.17 3.87h.27l.242.726h-.398l.835 5.322h.27l.503.968h-.621l.379 2.42h.463L11.86 15H3.15l.747-1.694h.463l.38-2.419h-.622l.522-.968h.251l.835-5.322h-.399l.242-.726h.27L6.296.968h.484l.242-.484h.242V0zm2.903 13.306l-.35-2.235-1.96 1.026 2.31 1.21zm-.704 0l-1.715-.898v.899h1.715zm-2.2-1.52v-.899H5.548l1.716.899zm-2.068-.715l-.35 2.236 2.309-1.21-1.959-1.026zm2.553-.184h1.715l-1.715.899v-.899zm-2.2 2.42l1.716-.9v.9H5.547zM9.63 9.883l-.356-2.268-1.471 1.012 1.827 1.256zm-.54.036l-1.342-.922v.922h1.341zM7.262 8.256V7.5h-1.1l1.1.756zm-1.527-.641l-.355 2.268 1.827-1.256-1.472-1.012zm2.01-.115h1.1l-1.1.756V7.5zM5.922 9.92l1.342-.923v.922H5.92zM9.18 7.015l-.36-2.294-1.066.978 1.425 1.316h.001zm-.486 0l-.946-.867v.867h.946zm-1.43-1.768v-.651h-.706l.706.651zM6.19 4.722l-.36 2.294h.001L7.257 5.7 6.19 4.722zm1.557-.125h.705l-.705.651v-.651zm-1.43 2.42l.946-.868v.867h-.946zM8.686 3.87l-.228-1.452h-.711v1.452h.939zm-1.423 0h-.94l.228-1.452h.712v1.452z"/>
</svg>