<?xml version="1.0" encoding="UTF-8"?>
<svg xmlns="http://www.w3.org/2000/svg" width="11" height="11" viewBox="0 0 11 11" id="oil-rig-11">
  <path d="M0 0h11v11H0z"/>
  <path d="M5.328.172h.344v.344h.172l.172.343h.343l.324 2.063h.192l.172.515h-.283l.593 3.782h.192l.357.687h-.441l.27 1.719h.328l.53 1.203H2.407l.53-1.203h.33l.27-1.719h-.442l.371-.687h.178l.593-3.782h-.283l.172-.515h.192L4.641.859h.343l.172-.343h.172V.172zm2.063 9.453l-.25-1.588-1.391.729 1.64.859zm-.5 0l-1.22-.638v.638h1.22zm-1.563-1.08v-.639H4.11l1.22.639zm-1.47-.508L3.61 9.625l1.641-.86-1.391-.728zm1.814-.13H6.89l-1.22.638v-.639zM4.109 9.624l1.22-.638v.638h-1.22zm2.9-2.432l-.253-1.611-1.045.718 1.298.893zm-.384.026l-.953-.656v.656h.953zM5.328 6.037V5.5h-.781l.781.537zm-1.084-.455l-.253 1.61L5.289 6.3l-1.045-.718zM5.672 5.5h.781l-.781.537V5.5zM4.375 7.219l.953-.656v.656h-.953zM6.69 5.156l-.256-1.63-.758.695 1.013.935zm-.346 0l-.672-.616v.616h.672zM5.328 3.9v-.462h-.501l.501.462zm-.762-.373l-.256 1.63h.001l1.013-.936-.758-.694zm1.106-.09h.501l-.501.463v-.462zm-1.016 1.72l.672-.617v.616h-.672zM6.34 2.921L6.177 1.89h-.505v1.03h.667zm-1.01 0H4.66l.162-1.031h.505v1.03z"/>
</svg>