<?xml version="1.0" encoding="UTF-8"?>
<svg xmlns="http://www.w3.org/2000/svg" width="15" height="15" viewBox="0 0 15 15" id="oil-rig-15">
  <path d="M0 0h15v15H0z"/>
  <path d="M7.266.234h.468v.47h.235l.234.468h.469l.441 2.812h.262l.234.704h-.386l.81 5.156h.26l.488.937h-.602l.368 2.344h.448l.724 1.64H3.28l.723-1.64h.45l.367-2.344h-.602l.506-.937h.243l.809-5.156H5.39l.234-.704h.262l.441-2.812h.469L7.03.703h.235V.234zm2.812 12.891l-.34-2.166-1.897.994 2.237 1.172zm-.682 0l-1.662-.87v.87h1.662zm-2.13-1.473v-.87H5.604l1.662.87zm-2.004-.693l-.34 2.166 2.237-1.172-1.897-.994zm2.472-.178h1.662l-1.662.87v-.87zm-2.13 2.344l1.662-.87v.87H5.604zm3.954-3.317l-.345-2.197-1.425.98 1.77 1.217zm-.524.036l-1.3-.894v.894h1.3zM7.266 8.232V7.5H6.2l1.066.732zm-1.48-.62l-.344 2.196 1.77-1.217-1.425-.98zM7.735 7.5H8.8l-1.066.732V7.5zM5.966 9.844l1.3-.894v.894h-1.3zM9.122 7.03L8.774 4.81l-1.034.947 1.381 1.275h.001zm-.471 0l-.917-.84v.84h.917zM7.266 5.32v-.631h-.684l.684.63zm-1.04-.51l-.348 2.222L7.26 5.756 6.226 4.81zm1.508-.122h.684l-.684.632v-.631zM6.35 7.031l.917-.84v.84h-.917zm2.295-3.047l-.22-1.406h-.69v1.406h.91zm-1.378 0h-.91l.22-1.406h.69v1.406z"/>
</svg>